<?xml version="1.0" encoding="utf-8"?>
<!-- Generator: Adobe Illustrator 24.0.0, SVG Export Plug-In . SVG Version: 6.00 Build 0)  -->
<svg version="1.1" id="Layer_1" xmlns="http://www.w3.org/2000/svg" xmlns:xlink="http://www.w3.org/1999/xlink" x="0px" y="0px"
	 viewBox="0 0 800 800" style="enable-background:new 0 0 800 800;" xml:space="preserve">
<style type="text/css">
	.st0{fill:#FFFFFF;}
</style>
<title>ic_fluent_copy_24_regular</title>
<desc>Created with Sketch.</desc>
<g id="_xD83D__xDD0D_-Product-Icons">
	<g id="ic_fluent_copy_24_regular">
		<path id="_xD83C__xDFA8_-Color" class="st0" d="M183.4,154.2l-0.1,70.8v350.1c0,59.8,48.5,108.3,108.3,108.3l287.2,0
			c-10.3,29.1-38.1,50-70.7,50H291.7c-87.4,0-158.3-70.9-158.3-158.3V225C133.3,192.3,154.2,164.5,183.4,154.2z M591.7,66.7
			c41.4,0,75,33.6,75,75V575c0,41.4-33.6,75-75,75h-300c-41.4,0-75-33.6-75-75V141.7c0-41.4,33.6-75,75-75H591.7z M591.7,116.7h-300
			c-13.8,0-25,11.2-25,25V575c0,13.8,11.2,25,25,25h300c13.8,0,25-11.2,25-25V141.7C616.7,127.9,605.5,116.7,591.7,116.7z"/>
	</g>
</g>
</svg>
