<svg id="Layer_1" data-name="Layer 1" xmlns="http://www.w3.org/2000/svg" viewBox="0 0 16 12.71"><defs><style>.cls-1{fill:#fff;}</style></defs><title>eye-slash-white</title><path class="cls-1" d="M13.36,11.24A13.71,13.71,0,0,0,16,8S13,2.5,8,2.5a6.88,6.88,0,0,0-2.79.59L6,3.86A5.81,5.81,0,0,1,8,3.5,7.46,7.46,0,0,1,13.17,6a13.57,13.57,0,0,1,1.66,2l-.2.29A12.79,12.79,0,0,1,13.17,10l-.52.49Z" transform="translate(0 -1.65)"/><path class="cls-1" d="M11.3,9.18A3.5,3.5,0,0,0,6.82,4.7l.83.82a2.52,2.52,0,0,1,2.83,2.13,2.73,2.73,0,0,1,0,.7Zm-3,1.29.83.83A3.5,3.5,0,0,1,4.7,6.82l.83.83a2.49,2.49,0,0,0,2.12,2.82A2.06,2.06,0,0,0,8.35,10.47Z" transform="translate(0 -1.65)"/><path class="cls-1" d="M3.35,5.47,2.83,6A13.57,13.57,0,0,0,1.17,8l.2.29A12.79,12.79,0,0,0,2.83,10,7.46,7.46,0,0,0,8,12.5a5.84,5.84,0,0,0,2-.36l.77.77A6.88,6.88,0,0,1,8,13.5C3,13.5,0,8,0,8A13.71,13.71,0,0,1,2.64,4.76l.71.71Zm10.3,8.88-12-12,.7-.7,12,12Z" transform="translate(0 -1.65)"/></svg>