<svg id="Layer_1" data-name="Layer 1" xmlns="http://www.w3.org/2000/svg" viewBox="0 0 16 11"><defs><style>.cls-1{fill:#fff;}</style></defs><title>eye-white</title><path class="cls-1" d="M16,8S13,2.5,8,2.5,0,8,0,8s3,5.5,8,5.5S16,8,16,8ZM1.17,8A13.57,13.57,0,0,1,2.83,6,7.46,7.46,0,0,1,8,3.5,7.46,7.46,0,0,1,13.17,6a13.57,13.57,0,0,1,1.66,2l-.2.29A12.79,12.79,0,0,1,13.17,10,7.46,7.46,0,0,1,8,12.5,7.46,7.46,0,0,1,2.83,10,13.57,13.57,0,0,1,1.17,8Z" transform="translate(0 -2.5)"/><path class="cls-1" d="M8,5.5A2.5,2.5,0,1,0,10.5,8,2.5,2.5,0,0,0,8,5.5ZM4.5,8A3.5,3.5,0,1,1,8,11.5,3.5,3.5,0,0,1,4.5,8Z" transform="translate(0 -2.5)"/></svg>