<?xml version="1.0" encoding="utf-8"?>
<!-- Generator: Adobe Illustrator 24.0.0, SVG Export Plug-In . SVG Version: 6.00 Build 0)  -->
<svg version="1.1" id="Layer_1" xmlns="http://www.w3.org/2000/svg" xmlns:xlink="http://www.w3.org/1999/xlink" x="0px" y="0px"
	 viewBox="0 0 800 800" style="enable-background:new 0 0 800 800;" xml:space="preserve">
<style type="text/css">
	.st0{fill:#FFFFFF;}
</style>
<title>ic_fluent_copy_24_regular</title>
<desc>Created with Sketch.</desc>
<g>
	<path class="st0" d="M0,358.5c2.4-5.7,4.3-11.7,7.4-17c8.1-13.6,20.6-20.9,36-23.5c15.9-2.7,31.8-5.1,47.6-8.2
		c2.8-0.6,6.2-3.5,7.3-6.2c6.5-14.7,12.6-29.6,18.3-44.6c1-2.5,0.5-6.6-1.1-8.8c-9-13.3-18.6-26.3-27.9-39.5
		c-17-24.2-14.9-48.6,6-69.6c14.7-14.7,29.4-29.4,44.2-44c21.4-21.1,45.8-22.9,70.2-5.4c12.2,8.8,24.6,17.5,36.6,26.5
		c3.8,2.8,6.8,3.2,11.2,1.2c13.9-6.3,28-12.4,42.3-17.9c4.9-1.9,6.8-4.5,7.6-9.3c3-17.9,5.6-35.9,9.5-53.6
		c4.7-21.3,22.8-36.4,44.6-37.1c25.5-0.8,51-0.8,76.4,0c23.6,0.8,41.6,18.2,45.8,42.6c2.8,15.9,5.5,31.7,7.9,47.6
		c0.7,4.4,2.6,6.5,6.8,8.2c15.2,5.8,30.4,12.1,45.3,18.6c4.2,1.8,6.9,1.5,10.5-1.1c13-9.5,26.1-18.8,39.4-28
		c22.5-15.7,46.8-14,66.6,5.1c16.1,15.6,31.9,31.4,47.4,47.4c19.1,19.7,20.8,44,5,66.6c-9.1,13-18.2,25.9-27.7,38.6
		c-3.1,4.2-3,7.4-1,12c6.1,13.7,11.8,27.6,17.2,41.7c1.8,4.7,4.3,6.9,9.3,7.7c17.7,2.8,35.4,5.5,52.9,9.4
		c21.7,4.8,36.6,23.1,37,45.3c0.5,24.4,0.5,48.9,0.1,73.3c-0.5,24.9-17.6,43.9-42.7,48.2c-16.1,2.8-32.3,5.1-48.4,8.2
		c-2.9,0.6-6.4,3.3-7.6,5.9c-6.6,14.7-12.7,29.5-18.5,44.5c-1,2.7-0.5,7.1,1.1,9.5c8.8,13.2,18.3,25.9,27.4,38.9
		c16.6,23.6,14.7,48-5.4,68.4c-14.9,15.2-30,30.3-45.2,45.2c-20.8,20.5-45.2,22.4-69,5.6c-12.7-9-25.5-17.9-38-27.3
		c-3.9-2.9-6.9-2.8-11.2-0.9c-13.7,6.1-27.6,11.9-41.7,17.2c-5.1,1.9-7.3,4.4-8.1,9.8c-2.3,15.9-5,31.8-7.9,47.6
		c-4,21-16.1,34.9-36.9,40.9c-1.2,0.3-2.3,1-3.4,1.6c-29.1,0-58.2,0-87.4,0c-0.6-0.4-1.2-1-1.9-1.2c-23-5.9-35.4-21-39-44.2
		c-2.3-15.1-5.2-30.2-7.5-45.3c-0.7-4.6-2.5-7.1-7.1-8.9c-14-5.4-27.8-11.5-41.8-16.8c-2.7-1-7.1-0.7-9.5,0.9
		c-13.6,9.1-26.7,18.8-40.1,28.2c-23.3,16.2-47.4,14.3-67.7-5.6c-15.4-15.1-30.6-30.3-45.7-45.7c-20.1-20.5-22-44.8-5.3-68.3
		c8.8-12.5,17.7-25,26.9-37.3c3.1-4.1,3.3-7.2,1.2-11.9c-6.3-13.6-12.3-27.4-17.5-41.5c-2-5.2-4.8-7.2-9.8-8
		c-15.9-2.5-31.9-4.7-47.5-8.2c-8.1-1.8-16.3-5.3-23.4-9.7C8.5,469.7,4,457.8,0,445.9C0,416.8,0,387.6,0,358.5z M754.2,401.1
		c0-10.1-0.4-20.3,0.1-30.4c0.3-7-2.7-9.5-9.2-10.5c-20.5-3.2-41-7-61.5-10.2c-12-1.9-19-8.5-22.1-20c-6-22.4-14.6-43.8-26.5-63.8
		c-6.5-10.9-5.8-20.9,1.7-31.1c12.3-16.8,24-33.9,36.3-50.7c3.7-5,3.3-8.5-1.1-12.7c-14.5-14.2-28.9-28.5-43-43
		c-4.5-4.7-8-5.1-13.3-1.1c-16.7,12.4-33.8,24.3-50.5,36.6c-9.1,6.6-18.4,8.2-28.4,2.6c-22-12.5-45.2-22.1-69.7-28.6
		c-10.6-2.8-16.4-10.1-18.1-21c-3.3-20.5-7.3-40.9-10.3-61.5c-1.1-7.4-4.2-9.4-11.2-9.2c-19.5,0.4-39,0.5-58.5-0.1
		c-7.8-0.2-10.5,2.8-11.5,9.9c-3,19.8-6.8,39.4-9.7,59.2c-1.9,13.1-8.7,21.2-21.5,24.5c-22.2,5.8-43.2,14.9-62.9,26.6
		c-10.9,6.4-21,5.6-31.1-1.9c-16.7-12.3-33.9-24.1-50.7-36.4c-4.7-3.4-7.9-3.2-12,1c-14.3,14.7-28.8,29.3-43.6,43.5
		c-4.8,4.7-4.5,8.2-0.8,13.3c12.1,16.6,23.6,33.6,35.9,50.1c8,10.7,7.7,20.6,2.1,32.5c-9.4,19.9-17.9,40.3-24.9,61.1
		c-4.6,13.6-12,20.8-26.1,22.8c-19.5,2.7-38.9,6.5-58.4,9.5c-6.2,1-8.9,3.4-8.7,10.1c0.4,20.3,0.4,40.6,0,60.8
		c-0.1,6.7,2.6,9,8.8,10c20.8,3.3,41.5,7.2,62.2,10.4c12,1.9,19.1,8.6,22.2,20c6.1,22.4,15,43.7,26.8,63.7c6.6,11.2,5.7,21.4-2,31.8
		c-12.1,16.3-23.4,33.1-35.4,49.4c-3.8,5.2-3.8,8.8,0.9,13.3c14.6,14.1,28.9,28.4,43,43c4.7,4.9,8.2,4.6,13.3,0.8
		c16.1-11.8,32.8-22.9,48.8-35c11.3-8.6,21.8-8.8,34.6-2.7c19.1,9.2,38.8,17.4,58.9,24.1c13.7,4.6,20.5,12.4,22.5,26.4
		c2.8,19.8,6.5,39.5,9.6,59.2c0.9,5.5,3.3,8,9.2,7.9c20.3-0.3,40.6-0.4,60.8,0c7.4,0.2,9.8-2.8,10.9-9.7c3.1-20.5,7-41,10.2-61.5
		c1.9-11.7,8.5-18.5,19.7-21.5c22.4-6,43.8-14.6,63.8-26.4c11.2-6.6,21.4-5.9,31.8,1.8c16.5,12.2,33.5,23.7,50,35.9
		c5.3,3.9,8.8,3.4,13.3-1.2c13.9-14.4,28.1-28.6,42.5-42.5c4.9-4.8,5.2-8.4,1.2-14c-12-16.3-23.3-33.2-35.4-49.4
		c-8-10.7-7.7-20.7-2.1-32.6c9.5-20.1,18.4-40.6,25.7-61.6c4.6-13.3,12.2-20.2,25.8-22.1c19.8-2.8,39.5-6.5,59.2-9.5
		c6.4-1,8.8-3.9,8.6-10.4C753.9,420.8,754.2,410.9,754.2,401.1z"/>
	<path class="st0" d="M399.3,228.3c94.5-0.5,171.6,76.3,172.5,171.8c0.9,94.2-76.1,171.6-171.7,172.6
		c-94.6,1-172.8-76.9-172.8-172.1C227.2,305.7,304,228.8,399.3,228.3z M272.2,400.7c0.2,70,56.9,126.7,127,127.2
		c69.8,0.4,127.8-57.5,127.6-127.4c-0.2-69.9-57-126.8-127.1-127.2C330,272.8,272,330.7,272.2,400.7z"/>
</g>
</svg>
