<?xml version="1.0" encoding="utf-8"?>
<!-- Generator: Adobe Illustrator 24.0.0, SVG Export Plug-In . SVG Version: 6.00 Build 0)  -->
<svg version="1.1" id="Layer_1" xmlns="http://www.w3.org/2000/svg" xmlns:xlink="http://www.w3.org/1999/xlink" x="0px" y="0px"
	 viewBox="0 0 800 800" style="enable-background:new 0 0 800 800;" xml:space="preserve">
<style type="text/css">
	.st0{fill:#FFFFFF;}
</style>
<title>ic_fluent_copy_24_regular</title>
<desc>Created with Sketch.</desc>
<g>
	<path class="st0" d="M343.4,11.3c37.4,0,74.9,0,112.3,0c11.5,5.7,16.3,15,17.3,27.8c1.4,18.4,4.4,36.6,6.4,54.9
		c0.5,4.4,2.1,6.2,6.3,7.8c21.3,8.4,42.5,17.2,63.5,26.2c4,1.7,6.6,1.9,10.1-0.9c15.7-12.7,31.7-25.1,47.6-37.5
		c11.7-9.1,23.3-8.5,33.8,2c22.4,22.3,44.7,44.6,67,67.1c10.5,10.5,11.1,22,1.9,33.8c-12.4,15.9-24.9,31.9-37.5,47.6
		c-2.6,3.2-2.7,5.6-1.1,9.4c9.2,21.3,18.1,42.7,26.6,64.2c1.7,4.2,3.5,5.8,7.8,6.3c18.3,2,36.6,5.1,54.9,6.5
		c12.8,0.9,22.1,5.7,27.7,17.3c0,37.4,0,74.9,0,112.3c-5.6,11.6-15,16.3-27.8,17.3c-18.4,1.4-36.6,4.5-55,6.5
		c-4.4,0.5-6.2,2.2-7.8,6.3c-8.4,21.3-17.2,42.5-26.3,63.5c-1.7,4-1.9,6.6,1,10.1c12.7,15.7,25.2,31.7,37.6,47.6
		c9.2,11.8,8.4,23.2-2.1,33.8c-22.1,22.2-44.3,44.4-66.5,66.6c-10.9,10.9-22.3,11.6-34.4,2.2c-15.8-12.3-31.5-24.5-47.1-37
		c-3.3-2.7-5.8-3.2-10.1-1.4c-21.3,9.2-42.7,18-64.3,26.6c-3.8,1.5-5.5,3-6,7.2c-2.2,19.8-4.8,39.6-7.1,59.5
		c-1.7,15.5-10.4,23.6-25.9,23.6c-31.4,0-62.7,0-94.1,0c-15.4,0-24.1-8.3-25.8-23.8c-2.2-19.8-4.9-39.6-7-59.5
		c-0.5-4.3-2.4-5.7-6.1-7.1c-21.5-8.6-43-17.4-64.3-26.6c-3.8-1.6-6.2-1.5-9.4,1c-15.6,12.5-31.3,24.8-47.1,37.1
		c-12.7,9.9-23.8,9.3-35-1.9c-22.2-22.2-44.3-44.4-66.4-66.6c-10.4-10.5-11.1-22.2-2-33.9c12.4-16,24.9-31.9,37.5-47.7
		c2.6-3.2,2.8-5.5,1.1-9.4c-9.2-21.3-18-42.7-26.6-64.2c-1.5-3.7-2.8-5.6-7.1-6.1c-20.1-2.1-40.1-4.9-60.2-7.2
		C19.2,471.1,11,462.3,11,447.2c0-31.1,0-62.2,0-93.3c0-16.4,8.1-25,24.4-26.8c19.3-2.1,38.6-4.8,58-6.8c4.7-0.5,6.6-2.4,8.3-6.8
		c8.3-21.1,17-42.1,25.9-62.9c1.8-4.2,2.1-7-1-10.7c-12.7-15.7-25.1-31.7-37.5-47.7c-8.8-11.4-8.2-23,2-33.3
		c22.3-22.4,44.7-44.8,67.1-67.1c10.6-10.6,22.1-11.3,33.8-2.1c16,12.4,31.9,24.9,47.7,37.5c3.1,2.5,5.4,3,9.4,1.3
		c21.5-9.3,43.3-18,64.8-27.2c2.3-1,5-4.1,5.4-6.5c2.7-18.5,5.5-37,6.9-55.7C327.1,26.3,331.8,17,343.4,11.3z M205.3,401
		c1.1,107.4,88.4,194,194.9,193.3c107.5-0.7,194.6-88.6,193.6-195.3c-1-107.6-89.2-194.7-195.7-193.2
		C290.6,207.2,204.2,294.6,205.3,401z"/>
</g>
</svg>
