<svg id="Layer_1" data-name="Layer 1" xmlns="http://www.w3.org/2000/svg" viewBox="0 0 777.46 735.42"><defs><style>.cls-1{fill:#fff;}</style></defs><title>passgen</title><path class="cls-1" d="M529.53,224.59c-5-2.83-7.36-4.84-10.07-5.59-15.4-4.31-19.26-14.55-20.43-30A98.08,98.08,0,0,0,410.1,98.84c-50.36-4.34-94,25.13-107.21,73A102,102,0,0,0,299.24,198c-.36,46.53-.21,93-.12,139.58,0,3.4.88,6.8,1.62,12.13H320.1q127.26,0,254.52,0c44,0,62.42,18.33,62.54,62.06.07,28.16,0,56.32,0,86.92,32.47,0,63.44,0,94.41,0,43,0,56.62,13.84,56.62,57.36,0,53,.09,106-.05,159-.1,34.92-15,51-50.24,52.08-32.38,1-64.8.35-97.21.36q-281.91,0-563.83,0c-8.82,0-17.74,0-26.43-1.26-23.63-3.35-38.87-19-39.14-42.67q-1-91,0-182c.31-25.91,18.16-42.35,44.4-42.71,34.7-.47,69.41-.12,106.87-.12,0-31.92-.26-62.87.08-93.81.31-28.15,14.64-47.51,39.79-53.32,9.06-2.1,18.63-1.95,30.81-3.1v-18.4c0-43.58-.24-87.16.09-130.74C234,105.53,307.89,32,400.67,32.29c91.61.34,164.47,74.11,165.27,167.43.14,15.9.7,31.85-.33,47.68s-10,26.29-25.72,29.56-28.06-2.49-35.48-16.64c-6.11-11.64-7.5-22.54,9-27.54C518.36,231.29,522.77,228.09,529.53,224.59ZM399,527.93q-166.94,0-333.85,0c-21.57,0-24.49,2.8-24.57,24.43-.17,47.67,0,95.35,0,143,0,43,0,43,42.6,43q317.06,0,634.13,0c5.89,0,11.77-.23,17.66-.27,17.52-.1,24.44-8.1,24.12-26.28-.94-53-.25-105.94-.34-158.92,0-22.1-3.1-25-25.86-25Q566,527.89,399,527.93Zm-28.76-30.68h60c-3.05-21.78-14.34-32.9-31.41-32.16C382,465.82,372,476.83,370.28,497.25Z" transform="translate(-10.76 -32.29)"/><path class="cls-1" d="M211.17,626.62,183.56,635l18.14,25.51-16.57,11.57-17.88-23.93L149.1,672.12l-16.57-11.57L150.41,635l-27.35-8.42,6.05-19.2,26.83,8.94v-31.3h22.35v31.3l26.57-8.94Z" transform="translate(-10.76 -32.29)"/><path class="cls-1" d="M366.09,626.62,338.47,635l18.15,25.51-16.57,11.57-17.88-23.93L304,672.12l-16.57-11.57L305.33,635,278,626.62l6-19.2,26.83,8.94v-31.3h22.35v31.3l26.57-8.94Z" transform="translate(-10.76 -32.29)"/><path class="cls-1" d="M521,626.62,493.39,635l18.15,25.51L495,672.12l-17.89-23.93-18.15,23.93-16.57-11.57L460.25,635l-27.36-8.42,6.06-19.2,26.83,8.94v-31.3h22.35v31.3l26.57-8.94Z" transform="translate(-10.76 -32.29)"/><path class="cls-1" d="M675.93,626.62,648.31,635l18.15,25.51-16.57,11.57L632,648.19l-18.14,23.93-16.57-11.57L615.17,635l-27.35-8.42,6-19.2,26.83,8.94v-31.3h22.36v31.3l26.57-8.94Z" transform="translate(-10.76 -32.29)"/></svg>